<?xml version="1.0" encoding="UTF-8"?>
<svg version="1.1" xmlns="http://www.w3.org/2000/svg" width="72" height="113">
<path d="M0 0 C23.76 0 47.52 0 72 0 C72 37.29 72 74.58 72 113 C48.24 113 24.48 113 0 113 C0 75.71 0 38.42 0 0 Z " fill="#FBFAF9" transform="translate(0,0)"/>
<path d="M0 0 C23.76 0 47.52 0 72 0 C72 37.29 72 74.58 72 113 C48.24 113 24.48 113 0 113 C0 75.71 0 38.42 0 0 Z M13 2 C13 32.69 13 63.38 13 95 C31.81 95 50.62 95 70 95 C70 64.31 70 33.62 70 2 C51.19 2 32.38 2 13 2 Z " fill="#692620" transform="translate(0,0)"/>
<path d="M0 0 C14.19 0 28.38 0 43 0 C43 2.31 43 4.62 43 7 C41.68 7.33 40.36 7.66 39 8 C39.40895508 8.74890503 39.40895508 8.74890503 39.82617188 9.51293945 C41.05726849 11.77600018 42.27871213 14.04413199 43.5 16.3125 C43.92925781 17.09818359 44.35851562 17.88386719 44.80078125 18.69335938 C45.20683594 19.45068359 45.61289063 20.20800781 46.03125 20.98828125 C46.40830078 21.68477783 46.78535156 22.38127441 47.17382812 23.09887695 C48 25 48 25 48 28 C29.98853815 29.44504565 12.01146185 29.44504565 -6 28 C-4.32073668 23.63221913 -2.36694083 19.41834992 -0.375 15.1875 C0.11226562 14.14819336 0.11226562 14.14819336 0.609375 13.08789062 C1.40499885 11.39133977 2.20232699 9.69558835 3 8 C2.01 7.34 1.02 6.68 0 6 C0 4.02 0 2.04 0 0 Z " fill="#F0EAE9" transform="translate(21,64)"/>
<path d="M0 0 C2.18495719 2.71427076 3.60755356 5.17479114 4.8125 8.4375 C6.83900663 13.78082802 9.33624609 18.83058553 11.92578125 23.921875 C13.7376841 29.11380027 12.29380305 32.58553135 10.00390625 37.34765625 C9.1982114 38.92344241 8.38418714 40.49499355 7.5625 42.0625 C3.9900457 48.89754367 3.9900457 48.89754367 1 56 C0.34 56 -0.32 56 -1 56 C-1.77923828 54.44152344 -1.77923828 54.44152344 -2.57421875 52.8515625 C-3.07804077 51.84488525 -3.07804077 51.84488525 -3.59204102 50.81787109 C-4.32508054 49.35048509 -5.05602355 47.88204997 -5.78491211 46.41259766 C-7.37130567 43.22005557 -8.97175917 40.05175297 -10.6796875 36.921875 C-11.13601562 36.08140625 -11.59234375 35.2409375 -12.0625 34.375 C-12.46597656 33.66085938 -12.86945312 32.94671875 -13.28515625 32.2109375 C-14.82004951 27.46367201 -12.95269546 23.67494119 -10.8203125 19.43359375 C-9.93052482 17.76359165 -9.03183023 16.09830946 -8.125 14.4375 C-7.67769531 13.60025391 -7.23039062 12.76300781 -6.76953125 11.90039062 C-4.60768094 7.87322699 -2.40252605 3.8901829 0 0 Z " fill="#66221C" transform="translate(42,6)"/>
<path d="M0 0 C5.61 0 11.22 0 17 0 C18.155 2.2275 19.31 4.455 20.5 6.75 C20.86544922 7.44448242 21.23089844 8.13896484 21.60742188 8.85449219 C23.33606166 12.25101458 24 14.11208902 24 18 C18.72 18 13.44 18 8 18 C6.66180502 15.3773768 5.3292849 12.75213401 4 10.125 C3.6184375 9.37863281 3.236875 8.63226563 2.84375 7.86328125 C2.4828125 7.14785156 2.121875 6.43242188 1.75 5.6953125 C1.41484375 5.03547363 1.0796875 4.37563477 0.734375 3.69580078 C0 2 0 2 0 0 Z " fill="#672620" transform="translate(44,73)"/>
<path d="M0 0 C5.28 0 10.56 0 16 0 C13.85454164 6.43637509 11.08371503 11.96664451 8 18 C2.72 18 -2.56 18 -8 18 C-6.01574909 11.42064172 -3.481238 5.92751336 0 0 Z " fill="#66251F" transform="translate(24,73)"/>
<path d="M0 0 C14.19 0 28.38 0 43 0 C43 1.98 43 3.96 43 6 C28.81 6 14.62 6 0 6 C0 4.02 0 2.04 0 0 Z " fill="#6B2D27" transform="translate(21,64)"/>
</svg>
